<?xml version="1.0" encoding="UTF-8"?>
<svg width="512" height="512" viewBox="0 0 512 512" fill="none" xmlns="http://www.w3.org/2000/svg">
  <circle cx="256" cy="256" r="256" fill="#E03E2D"/>
  <path d="M400 140H112V180H400V140Z" fill="white"/>
  <path d="M160 140V100H200V140" fill="white"/>
  <path d="M240 140V100H280V140" fill="white"/>
  <path d="M320 140V100H360V140" fill="white"/>
  <path d="M256 340C291.346 340 320 311.346 320 276C320 240.654 291.346 212 256 212C220.654 212 192 240.654 192 276C192 311.346 220.654 340 256 340Z" fill="white"/>
  <path d="M280 212L320 172" stroke="white" stroke-width="16" stroke-linecap="round"/>
  <path d="M112 400H160V380H112V400ZM160 380H192V360H160V380ZM192 360H224V340H192V360ZM224 340H256V320H224V340ZM256 320H288V340H256V320ZM288 340H320V360H288V340ZM320 360H352V380H320V360ZM352 380H400V400H352V380Z" fill="white"/>
</svg>